<svg viewBox="0 0 512 512" xmlns="http://www.w3.org/2000/svg">
  <defs>
    <linearGradient id="bgGrad" x1="0%" y1="0%" x2="100%" y2="100%">
      <stop offset="0%" style="stop-color:#2c3e50;stop-opacity:1" />
      <stop offset="100%" style="stop-color:#34495e;stop-opacity:1" />
    </linearGradient>
    <linearGradient id="flapGrad" x1="0%" y1="0%" x2="100%" y2="100%">
      <stop offset="0%" style="stop-color:#34495e;stop-opacity:1" />
      <stop offset="100%" style="stop-color:#2c3e50;stop-opacity:1" />
    </linearGradient>
  </defs>
  
  <!-- Background -->
  <rect width="512" height="512" rx="64" fill="url(#bgGrad)"/>
  
  <!-- Split Flap Display Container -->
  <g transform="translate(64,128)">
    <!-- Hour Tens -->
    <g transform="translate(0,0)">
      <rect width="80" height="120" rx="8" fill="url(#flapGrad)" stroke="rgba(255,255,255,0.1)" stroke-width="1"/>
      <rect width="80" height="60" rx="8 8 0 0" fill="#3a4d63"/>
      <rect y="60" width="80" height="60" rx="0 0 8 8" fill="#2c3e50"/>
      <text x="40" y="45" text-anchor="middle" fill="#ecf0f1" font-family="monospace" font-size="48" font-weight="bold">1</text>
      <text x="40" y="105" text-anchor="middle" fill="#ecf0f1" font-family="monospace" font-size="48" font-weight="bold">1</text>
      <line x1="0" y1="60" x2="80" y2="60" stroke="rgba(26,37,47,0.8)" stroke-width="2"/>
    </g>
    
    <!-- Hour Units -->
    <g transform="translate(88,0)">
      <rect width="80" height="120" rx="8" fill="url(#flapGrad)" stroke="rgba(255,255,255,0.1)" stroke-width="1"/>
      <rect width="80" height="60" rx="8 8 0 0" fill="#3a4d63"/>
      <rect y="60" width="80" height="60" rx="0 0 8 8" fill="#2c3e50"/>
      <text x="40" y="45" text-anchor="middle" fill="#ecf0f1" font-family="monospace" font-size="48" font-weight="bold">5</text>
      <text x="40" y="105" text-anchor="middle" fill="#ecf0f1" font-family="monospace" font-size="48" font-weight="bold">5</text>
      <line x1="0" y1="60" x2="80" y2="60" stroke="rgba(26,37,47,0.8)" stroke-width="2"/>
    </g>
    
    <!-- Colon -->
    <g transform="translate(176,30)">
      <circle cx="8" cy="20" r="4" fill="#ecf0f1" opacity="0.8"/>
      <circle cx="8" cy="60" r="4" fill="#ecf0f1" opacity="0.8"/>
    </g>
    
    <!-- Minute Tens -->
    <g transform="translate(200,0)">
      <rect width="80" height="120" rx="8" fill="url(#flapGrad)" stroke="rgba(255,255,255,0.1)" stroke-width="1"/>
      <rect width="80" height="60" rx="8 8 0 0" fill="#3a4d63"/>
      <rect y="60" width="80" height="60" rx="0 0 8 8" fill="#2c3e50"/>
      <text x="40" y="45" text-anchor="middle" fill="#ecf0f1" font-family="monospace" font-size="48" font-weight="bold">3</text>
      <text x="40" y="105" text-anchor="middle" fill="#ecf0f1" font-family="monospace" font-size="48" font-weight="bold">3</text>
      <line x1="0" y1="60" x2="80" y2="60" stroke="rgba(26,37,47,0.8)" stroke-width="2"/>
    </g>
    
    <!-- Minute Units -->
    <g transform="translate(288,0)">
      <rect width="80" height="120" rx="8" fill="url(#flapGrad)" stroke="rgba(255,255,255,0.1)" stroke-width="1"/>
      <rect width="80" height="60" rx="8 8 0 0" fill="#3a4d63"/>
      <rect y="60" width="80" height="60" rx="0 0 8 8" fill="#2c3e50"/>
      <text x="40" y="45" text-anchor="middle" fill="#ecf0f1" font-family="monospace" font-size="48" font-weight="bold">0</text>
      <text x="40" y="105" text-anchor="middle" fill="#ecf0f1" font-family="monospace" font-size="48" font-weight="bold">0</text>
      <line x1="0" y1="60" x2="80" y2="60" stroke="rgba(26,37,47,0.8)" stroke-width="2"/>
    </g>
  </g>
  
  <!-- App Name -->
  <text x="256" y="320" text-anchor="middle" fill="#ecf0f1" font-family="sans-serif" font-size="32" font-weight="600" opacity="0.9">Split Flap</text>
  <text x="256" y="356" text-anchor="middle" fill="#ecf0f1" font-family="sans-serif" font-size="24" font-weight="400" opacity="0.7">Clock</text>
  
  <!-- Decorative elements -->
  <circle cx="128" cy="420" r="3" fill="#ecf0f1" opacity="0.3"/>
  <circle cx="384" cy="420" r="3" fill="#ecf0f1" opacity="0.3"/>
  <circle cx="256" cy="440" r="2" fill="#ecf0f1" opacity="0.4"/>
</svg>